<svg width="68" height="13" viewBox="0 0 68 13" fill="none" xmlns="http://www.w3.org/2000/svg">
<g clip-path="url(#clip0)">
<rect width="1020" height="1926" transform="translate(-534 -702)" fill="white"/>
<rect x="-13.5" y="-213.5" width="219" height="303" stroke="#DDDADA"/>
<path d="M10.6415 5.13829L7.66615 4.70586L6.33608 2.00938C6.29975 1.93555 6.23998 1.87579 6.16615 1.83946C5.981 1.74805 5.756 1.82422 5.66342 2.00938L4.33334 4.70586L1.35795 5.13829C1.27592 5.15 1.20092 5.18868 1.1435 5.24727C1.07408 5.31862 1.03582 5.41461 1.03714 5.51416C1.03846 5.6137 1.07924 5.70864 1.15053 5.77813L3.30326 7.87696L2.79467 10.8406C2.78274 10.9096 2.79037 10.9805 2.81669 11.0453C2.84301 11.1101 2.88697 11.1663 2.94358 11.2074C3.00019 11.2485 3.06719 11.2729 3.13697 11.2779C3.20676 11.2829 3.27655 11.2682 3.33842 11.2356L5.99975 9.83633L8.66108 11.2356C8.73373 11.2742 8.81811 11.2871 8.89897 11.2731C9.10287 11.2379 9.23998 11.0445 9.20483 10.8406L8.69623 7.87696L10.849 5.77813C10.9076 5.72071 10.9462 5.64571 10.958 5.56368C10.9896 5.3586 10.8466 5.16875 10.6415 5.13829Z" fill="#FFD168"/>
<path d="M24.6415 5.13829L21.6662 4.70586L20.3361 2.00938C20.2997 1.93555 20.24 1.87579 20.1662 1.83946C19.981 1.74805 19.756 1.82422 19.6634 2.00938L18.3333 4.70586L15.358 5.13829C15.2759 5.15 15.2009 5.18868 15.1435 5.24727C15.0741 5.31862 15.0358 5.41461 15.0371 5.51416C15.0385 5.6137 15.0792 5.70864 15.1505 5.77813L17.3033 7.87696L16.7947 10.8406C16.7827 10.9096 16.7904 10.9805 16.8167 11.0453C16.843 11.1101 16.887 11.1663 16.9436 11.2074C17.0002 11.2485 17.0672 11.2729 17.137 11.2779C17.2068 11.2829 17.2765 11.2682 17.3384 11.2356L19.9997 9.83633L22.6611 11.2356C22.7337 11.2742 22.8181 11.2871 22.899 11.2731C23.1029 11.2379 23.24 11.0445 23.2048 10.8406L22.6962 7.87696L24.849 5.77813C24.9076 5.72071 24.9462 5.64571 24.958 5.56368C24.9896 5.3586 24.8466 5.16875 24.6415 5.13829Z" fill="#FFD168"/>
<path d="M38.6415 5.13829L35.6662 4.70586L34.3361 2.00938C34.2997 1.93555 34.24 1.87579 34.1662 1.83946C33.981 1.74805 33.756 1.82422 33.6634 2.00938L32.3333 4.70586L29.358 5.13829C29.2759 5.15 29.2009 5.18868 29.1435 5.24727C29.0741 5.31862 29.0358 5.41461 29.0371 5.51416C29.0385 5.6137 29.0792 5.70864 29.1505 5.77813L31.3033 7.87696L30.7947 10.8406C30.7827 10.9096 30.7904 10.9805 30.8167 11.0453C30.843 11.1101 30.887 11.1663 30.9436 11.2074C31.0002 11.2485 31.0672 11.2729 31.137 11.2779C31.2068 11.2829 31.2765 11.2682 31.3384 11.2356L33.9997 9.83633L36.6611 11.2356C36.7337 11.2742 36.8181 11.2871 36.899 11.2731C37.1029 11.2379 37.24 11.0445 37.2048 10.8406L36.6962 7.87696L38.849 5.77813C38.9076 5.72071 38.9462 5.64571 38.958 5.56368C38.9896 5.3586 38.8466 5.16875 38.6415 5.13829Z" fill="#FFD168"/>
<path d="M52.6415 5.13829L49.6662 4.70586L48.3361 2.00938C48.2997 1.93555 48.24 1.87579 48.1662 1.83946C47.981 1.74805 47.756 1.82422 47.6634 2.00938L46.3333 4.70586L43.358 5.13829C43.2759 5.15 43.2009 5.18868 43.1435 5.24727C43.0741 5.31862 43.0358 5.41461 43.0371 5.51416C43.0385 5.6137 43.0792 5.70864 43.1505 5.77813L45.3033 7.87696L44.7947 10.8406C44.7827 10.9096 44.7904 10.9805 44.8167 11.0453C44.843 11.1101 44.887 11.1663 44.9436 11.2074C45.0002 11.2485 45.0672 11.2729 45.137 11.2779C45.2068 11.2829 45.2765 11.2682 45.3384 11.2356L47.9997 9.83633L50.6611 11.2356C50.7337 11.2742 50.8181 11.2871 50.899 11.2731C51.1029 11.2379 51.24 11.0445 51.2048 10.8406L50.6962 7.87696L52.849 5.77813C52.9076 5.72071 52.9462 5.64571 52.958 5.56368C52.9896 5.3586 52.8466 5.16875 52.6415 5.13829Z" fill="#FFD168"/>
<path d="M66.393 5.14848L63.6894 4.75747L62.4811 2.32699C62.2646 1.89376 61.6373 1.88825 61.4189 2.32699L60.2106 4.75747L57.507 5.14848C57.0222 5.21823 56.8279 5.81117 57.1795 6.15077L59.1354 8.04156L58.6728 10.7125C58.5896 11.1953 59.1021 11.5569 59.5314 11.3311L61.95 10.07L64.3686 11.3311C64.7979 11.5551 65.3104 11.1953 65.2272 10.7125L64.7646 8.04156L66.7205 6.15077C67.0721 5.81117 66.8778 5.21823 66.393 5.14848V5.14848ZM63.8116 7.73316L64.2501 10.2738L61.95 9.07506L59.6499 10.2738L60.0884 7.73316L58.2269 5.93416L60.799 5.56335L61.95 3.25035L63.101 5.56335L65.6731 5.93416L63.8116 7.73316V7.73316Z" fill="#FFD168"/>
</g>
<defs>
<clipPath id="clip0">
<rect width="1020" height="1926" fill="white" transform="translate(-534 -702)"/>
</clipPath>
</defs>
</svg>
